<?xml version="1.0" standalone="no"?>
<!DOCTYPE svg PUBLIC "-//W3C//DTD SVG 20010904//EN"
 "http://www.w3.org/TR/2001/REC-SVG-20010904/DTD/svg10.dtd">
<svg version="1.0" xmlns="http://www.w3.org/2000/svg"
 width="1055.000000pt" height="680.000000pt" viewBox="0 0 1055.000000 680.000000"
 preserveAspectRatio="xMidYMid meet">

<g transform="translate(0.000000,680.000000) scale(0.100000,-0.100000)"
fill="#000000" stroke="none">
<path d="M4232 6339 c-192 -32 -375 -161 -629 -442 -409 -453 -635 -830 -803
-1337 -116 -350 -170 -703 -170 -1109 0 -444 67 -878 213 -1376 42 -144 112
-350 128 -373 10 -16 10 -15 5 1 -30 95 -77 425 -97 677 -24 309 10 711 86
1010 76 297 167 516 342 820 210 365 579 787 1063 1212 246 216 308 291 356
434 101 301 -144 541 -494 483z"/>
<path d="M6765 6295 c-356 -51 -737 -151 -1025 -268 -177 -72 -229 -96 -345
-156 -379 -199 -686 -429 -988 -741 -481 -497 -864 -1165 -1132 -1976 -36
-108 -65 -201 -65 -207 0 -6 42 72 93 173 236 467 482 816 793 1122 177 173
291 268 484 399 219 149 528 301 805 396 466 159 943 247 1625 298 250 19 390
56 507 135 78 52 115 93 155 170 31 61 33 71 33 166 0 95 -2 104 -37 175 -100
203 -325 324 -618 334 -86 3 -158 -2 -285 -20z"/>
<path d="M1973 4775 c-162 -45 -311 -225 -358 -430 -44 -192 -52 -641 -17
-937 69 -577 278 -1091 630 -1548 219 -283 462 -516 822 -788 115 -87 590
-384 590 -369 0 2 -35 31 -77 63 -175 133 -400 345 -546 513 -336 388 -547
821 -641 1316 -45 236 -51 320 -51 685 1 355 6 437 50 750 35 250 40 349 22
447 -25 135 -98 241 -197 285 -59 26 -161 32 -227 13z"/>
<path d="M1096 2386 c-83 -31 -162 -122 -191 -219 -19 -65 -19 -186 0 -260 25
-96 80 -197 171 -317 396 -520 831 -848 1379 -1040 478 -167 977 -207 1609
-129 124 15 403 64 413 73 1 0 -132 1 -295 1 -319 0 -386 6 -628 56 -291 60
-508 143 -769 294 -55 32 -112 67 -127 79 -15 11 -48 37 -75 56 -316 228 -614
560 -938 1045 -186 278 -287 364 -439 372 -46 2 -85 -2 -110 -11z"/>
</g>
</svg>
